# xmcd
#
# Track frame offsets: 
#        183
#        27325
#        55905
#        84850
#        105733
#        131285
#        160063
#        179200
#        200163
#        211900
#        238818
#        260730
#        286123
#        320360
#
# Disc length: 4576 seconds
#
# Revision: 2
# Processed by: cddbd v1.5.2PL0 Copyright (c) Steve Scherf et al.
# Submitted via: ExactAudioCopy v1.1
#
DISCID=c911de0e
DTITLE=Robert Woolley - JC Bach - Six Sonatas Op. 17
DYEAR=1993
DGENRE=Classical
TTITLE0=Keyboard Sonata No. 1 in G major - I. Allegro
TTITLE1=Keyboard Sonata No. 1 in G major - II. Minuetto con variatione
TTITLE2=Keyboard Sonata No. 2 in C minor - I. Allegro
TTITLE3=Keyboard Sonata No. 2 in C minor - II. Andante
TTITLE4=Keyboard Sonata No. 2 in C minor - III. Prestissimo
TTITLE5=Keyboard Sonata No. 3 in E flat major - I. Allegro assai
TTITLE6=Keyboard Sonata No. 3 in E flat major - II. Allegro
TTITLE7=Keyboard Sonata No. 4 in G major - I. Allegro
TTITLE8=Keyboard Sonata No. 4 in G major - II. Presto assai
TTITLE9=Keyboard Sonata No. 5 in A major - I. Allegro
TTITLE10=Keyboard Sonata No. 5 in A major - II. Presto
TTITLE11=Keyboard Sonata No. 6 in B flat major - I. Allegro
TTITLE12=Keyboard Sonata No. 6 in B flat major - II. Andante
TTITLE13=Keyboard Sonata No. 6 in B flat major - III. Prestissimo
EXTD=
EXTT0=
EXTT1=
EXTT2=
EXTT3=
EXTT4=
EXTT5=
EXTT6=
EXTT7=
EXTT8=
EXTT9=
EXTT10=
EXTT11=
EXTT12=
EXTT13=
PLAYORDER=
